<svg width="61" height="60" viewBox="0 0 61 88" fill="none" xmlns="http://www.w3.org/2000/svg">
<g clip-path="url(#clip0_3451_472)">
<path d="M36.98 0H23.8C22.42 0 21.3 1.12 21.3 2.5C21.3 3.88 22.42 5 23.8 5H36.98C45.8 5 55.14 14.37 55.14 23.23V76.83C55.14 80.14 52.45 82.83 49.14 82.83H11C7.69 82.83 5 80.14 5 76.83V11C5 7.69 7.69 5 11 5H12.88C14.26 5 15.38 3.88 15.38 2.5C15.38 1.12 14.26 0 12.88 0H11C4.94 0 0 4.94 0 11V76.83C0 82.9 4.94 87.83 11 87.83H49.13C55.2 87.83 60.13 82.89 60.13 76.83V23.23C60.14 11.51 48.67 0 36.98 0Z" fill="#de2554"/>
<path d="M13.47 56.7199C13.47 60.3099 14.12 63.4099 15.42 66.0399C16.72 68.6699 18.6 70.6899 21.04 72.1199C23.48 73.5499 26.4 74.2699 29.8 74.2699C32 74.2699 33.96 73.9799 35.69 73.3899C37.42 72.7999 38.91 72.0099 40.17 70.9999C41.43 69.9999 42.43 68.8699 43.18 67.6199C43.93 66.3699 44.44 65.0999 44.72 63.7899L44.78 63.4399L39.02 60.9999C39.02 60.9999 38.19 63.2099 35.93 65.8099C35.32 66.5099 34.45 67.0099 33.45 67.4299C32.45 67.8499 31.28 68.0499 29.96 68.0499C28.19 68.0499 26.66 67.6599 25.38 66.8799C24.1 66.0999 23.11 64.9799 22.42 63.5199C21.77 62.1399 21.43 60.4899 21.39 58.5699H45.14V56.0099C45.14 52.5899 44.5 49.6099 43.23 47.0399C41.96 44.4799 40.15 42.4899 37.79 41.0699C35.43 39.6499 32.64 38.9399 29.42 38.9399C26.2 38.9399 23.36 39.6799 20.98 41.1499C18.6 42.6199 16.75 44.6899 15.44 47.3499C14.13 50.0099 13.47 53.1199 13.47 56.6799V56.7099V56.7199ZM22.42 49.7099C23.11 48.2199 24.07 47.0899 25.3 46.3299C26.53 45.5699 27.93 45.1899 29.51 45.1899C31.09 45.1899 32.45 45.5599 33.64 46.2899C34.84 47.0299 35.77 48.1299 36.46 49.5999C36.94 50.6299 37.24 51.8499 37.38 53.2499H21.49C21.64 51.9199 21.94 50.7299 22.42 49.6999V49.7099Z" fill="#de2554"/>
</g>
<defs>
<clipPath id="clip0_3451_472">
<rect width="60.14" height="87.84" fill="white"/>
</clipPath>
</defs>
</svg>
