<svg width="61" height="60" viewBox="0 0 61 88" fill="none" xmlns="http://www.w3.org/2000/svg">
<g clip-path="url(#clip0_3451_475)">
<path d="M36.98 0H23.8C22.42 0 21.3 1.12 21.3 2.5C21.3 3.88 22.42 5 23.8 5H36.98C45.8 5 55.14 14.37 55.14 23.23V76.83C55.14 80.14 52.45 82.83 49.14 82.83H11C7.69 82.83 5 80.14 5 76.83V11C5 7.69 7.69 5 11 5H12.88C14.26 5 15.38 3.88 15.38 2.5C15.38 1.12 14.26 0 12.88 0H11C4.94 0 0 4.94 0 11V76.83C0 82.9 4.94 87.83 11 87.83H49.13C55.2 87.83 60.13 82.89 60.13 76.83V23.23C60.14 11.51 48.67 0 36.98 0Z" fill="#de2554"/>
<path d="M12.19 46.9698V69.8898C12.19 73.0098 14.74 75.5598 17.86 75.5598H42.29C45.41 75.5598 47.96 73.0098 47.96 69.8898V46.9698C47.96 43.8498 45.41 41.2998 42.29 41.2998H17.86C14.74 41.2998 12.19 43.8498 12.19 46.9698ZM17.39 46.9498H42.75V69.9098H17.39V46.9498Z" fill="#de2554"/>
</g>
<defs>
<clipPath id="clip0_3451_475">
<rect width="60.14" height="87.84" fill="white"/>
</clipPath>
</defs>
</svg>
