<svg width="60" height="97" viewBox="0 0 60 97" fill="none" xmlns="http://www.w3.org/2000/svg">
<path fill-rule="evenodd" clip-rule="evenodd" d="M25.2151 18.7551C26.2369 15.6469 27.8909 14.0919 30.1735 14.0919C32.7607 14.0919 34.4501 15.6469 35.2417 18.7551H25.2151ZM39.345 23.8247C40.4907 23.8247 41.3088 23.5552 41.7976 23.0144C42.2899 22.4754 42.5343 21.6137 42.5343 20.4346C42.5449 18.2679 41.9924 16.1331 40.9263 14.2466C38.7765 10.3777 34.6947 7.98939 30.2711 8.0089C27.9867 7.98939 25.7413 8.6082 23.788 9.79616C21.8436 10.9664 20.2428 12.6331 19.152 14.626C18.0292 16.6438 17.4484 18.9186 17.4661 21.2289C17.4661 24.7893 18.3923 27.6953 20.2463 29.9472C21.5107 31.4826 23.1169 32.6972 24.9391 33.4951C26.779 34.3054 28.7694 34.7185 30.7794 34.7079C33.9191 34.7079 36.7046 34.0146 39.1342 32.6316C41.13 31.495 42.127 30.2308 42.127 28.839C42.1234 28.3124 41.9676 27.7982 41.6825 27.3549C41.3868 26.878 40.9724 26.4861 40.4836 26.2184C40.0126 25.9471 39.4813 25.8035 38.9377 25.7982C38.4472 25.8283 37.9637 25.9506 37.5157 26.1563L35.3907 27.2148C34.0873 27.8797 32.6476 28.2255 31.1867 28.2273C29.9223 28.2379 28.6933 27.8248 27.6875 27.057C26.7259 26.3904 25.9839 25.3123 25.465 23.8247H39.345ZM53.333 46.7239V56.7382H40.0002V43.3887H50.0002C51.8401 43.3887 53.333 44.8817 53.333 46.7239ZM40.0002 73.4239H53.333V60.0744H40.0002V73.4239ZM53.333 86.7736C53.333 88.6176 51.8401 90.1123 50.0002 90.1123H40.0002V76.7629H53.333V86.7736ZM23.3329 90.1123H36.6656V76.7629H23.3329V90.1123ZM9.99801 90.1123C8.1581 90.1123 6.66527 88.6176 6.66527 86.7736V76.7629H19.9998V90.1123H9.99801ZM6.66527 60.0751H23.3325V43.3887H36.6653V73.4246H6.66527V60.0751ZM6.66527 46.7239C6.66527 44.8817 8.1581 43.3887 9.99801 43.3887H19.9998V56.7382H6.66527V46.7239ZM40 0H4.99911C2.23659 0 0 2.24117 0 5.00539V91.7832C0 94.5474 2.23659 96.7886 4.99911 96.7886H54.9991C57.7616 96.7886 60 94.5474 60 91.7832V20.0251L40 0Z" fill="#F16E00"/>
</svg>
