<svg width="66" height="66" viewBox="0 0 66 66" fill="none" xmlns="http://www.w3.org/2000/svg">
<rect width="66" height="66" fill="white"/>
<path fill-rule="evenodd" clip-rule="evenodd" d="M35.7206 23.3567L34.8186 38.1334C34.8176 39.1339 34.0035 39.5095 32.999 39.5095C31.9945 39.5095 31.1795 39.1339 31.1786 38.1334L30.2736 23.323C30.2707 23.2681 30.2688 23.2142 30.2688 23.1593C30.2688 21.657 31.4908 20.4397 32.999 20.4397C34.5063 20.4397 35.7283 21.657 35.7283 23.1593C35.7283 23.2257 35.7254 23.2922 35.7206 23.3567ZM32.999 47.6306C31.4908 47.6306 30.2688 46.4134 30.2688 44.912C30.2688 43.4097 31.4908 42.1934 32.999 42.1934C34.5063 42.1934 35.7283 43.4097 35.7283 44.912C35.7283 46.4134 34.5063 47.6306 32.999 47.6306ZM63.9365 26.3256L42.0985 22.7441L32.999 4.125L23.8986 22.7441L2.06152 26.3256L18.44 40.6477L12.9805 62.1328L32.999 51.3903L53.0175 62.1328L47.557 40.6477L63.9365 26.3256Z" fill="#FFCD0B"/>
</svg>
