<svg width="38" height="38" viewBox="0 0 38 38" fill="none" xmlns="http://www.w3.org/2000/svg">
<path d="M18.9498 0.765625C8.62501 0.765625 0.259766 8.94044 0.259766 19.0302C0.259766 29.1199 8.62501 37.2947 18.9498 37.2947C29.2745 37.2947 37.6397 29.1199 37.6397 19.0302C37.6397 8.94044 29.2745 0.765625 18.9498 0.765625ZM18.5542 8.0633C20.1782 8.0633 21.4968 9.35192 21.4968 10.939C21.4968 12.526 20.1782 13.8146 18.5542 13.8146C16.9302 13.8146 15.6115 12.526 15.6115 10.939C15.6115 9.34514 16.9302 8.0633 18.5542 8.0633ZM23.7316 29.997H14.5358V29.4951C14.5358 29.3595 14.6121 29.2374 14.737 29.1764C15.8961 28.6067 16.7428 28.037 16.7428 26.5923V19.9865C16.7428 19.0302 16.2569 18.2095 15.4102 17.7348L14.3553 17.1447C14.2373 17.0769 14.1749 16.9684 14.1749 16.8395V16.5818C14.1749 16.3851 14.3345 16.2291 14.5358 16.2291H21.1706C21.3719 16.2291 21.5315 16.3851 21.5315 16.5818L21.5246 26.5856C21.5246 28.0234 22.3713 28.5999 23.5303 29.1696C23.6552 29.2306 23.7316 29.3459 23.7316 29.4884V29.997Z" fill="#527EDB"/>
</svg>
