<svg width="60" height="97" viewBox="0 0 60 97" fill="none" xmlns="http://www.w3.org/2000/svg">
<path fill-rule="evenodd" clip-rule="evenodd" d="M53.3326 46.7266V56.7392H39.9999V43.3897H49.9999C51.8398 43.3897 53.3326 44.8844 53.3326 46.7266ZM39.9999 73.4267H53.3326V60.0772H39.9999V73.4267ZM53.3326 86.7764C53.3326 88.6204 51.8398 90.1151 49.9999 90.1151H39.9999V76.7638H53.3326V86.7764ZM23.3327 90.1133H36.6654V76.7638H23.3327V90.1133ZM9.99796 90.1151C8.15804 90.1151 6.66521 88.6204 6.66521 86.7764V76.7638H19.9997V90.1151H9.99796ZM6.66521 60.0761H23.3325V43.3897H36.6652V73.4274H6.66521V60.0761ZM6.66521 46.7266C6.66521 44.8844 8.15804 43.3897 9.99796 43.3897H19.9997V56.7392H6.66521V46.7266ZM40 0H4.99911C2.23659 0 0 2.24117 0 5.00716V91.7832C0 94.5492 2.23659 96.7886 4.99911 96.7886H54.9991C57.7617 96.7886 60 94.5492 60 91.7832V20.0251L40 0Z" fill="#F16E00"/>
</svg>
